<svg id="adobe-xd-1" xmlns="http://www.w3.org/2000/svg" width="41.026" height="40" viewBox="0 0 41.026 40">
  <path id="Caminho_112" data-name="Caminho 112" d="M33.761,40H7.265A7.258,7.258,0,0,1,0,32.735V7.265A7.258,7.258,0,0,1,7.265,0h26.5a7.258,7.258,0,0,1,7.265,7.265v25.47A7.258,7.258,0,0,1,33.761,40Z" fill="#ff26be"/>
  <path id="Caminho_113" data-name="Caminho 113" d="M135.578,140.752H110.4a6.211,6.211,0,0,1-6.2-6.2V110.4a6.211,6.211,0,0,1,6.2-6.2h25.161a6.2,6.2,0,0,1,6.2,6.2v24.136a6.19,6.19,0,0,1-6.184,6.216Z" transform="translate(-102.476 -102.476)" fill="#2e001f"/>
  <path id="Caminho_114" data-name="Caminho 114" d="M475.208,601.862l4.762,9.271c.085.137.034.276-.1.276h-2.96a.333.333,0,0,1-.358-.223c-1.089-2.275-2.194-4.549-3.334-7h-.034c-1.02,2.309-2.144,4.74-3.231,7.014a.328.328,0,0,1-.307.19h-2.8c-.17,0-.188-.137-.1-.242l4.659-9-4.506-9.1a.139.139,0,0,1,.1-.242h2.925a.266.266,0,0,1,.305.19c1.071,2.275,2.16,4.619,3.18,6.91h.034c.986-2.275,2.075-4.635,3.13-6.894.085-.137.135-.223.307-.223h2.738c.135,0,.188.1.1.242Zm5.6,2.809c0-4.015,2.637-7.152,6.819-7.152a7.4,7.4,0,0,1,.885.035v-4.566a.171.171,0,0,1,.17-.172h2.687c.135,0,.17.051.17.137v15.82a12.475,12.475,0,0,0,.085,1.689c0,.1-.034.137-.136.19a10.013,10.013,0,0,1-4.354,1c-3.691.015-6.328-2.293-6.326-6.981Zm7.7-4.411a2.526,2.526,0,0,0-.986-.172c-2.144,0-3.639,1.671-3.639,4.447,0,3.171,1.531,4.447,3.453,4.447a3.15,3.15,0,0,0,1.174-.19v-8.531Z" transform="translate(-458.969 -583.141)" fill="#ffd9f2"/>
</svg>
