<svg xmlns="http://www.w3.org/2000/svg" width="27.272" height="40" viewBox="0 0 27.272 40">
  <g id="figma_logo_icon_171159" transform="translate(-1.202 -0.74)">
    <path id="Caminho_107" data-name="Caminho 107" d="M8.017,18.183a6.817,6.817,0,0,0,6.814-6.814V4.554H8.017a6.814,6.814,0,1,0,0,13.629Z" transform="translate(0.006 22.557)" fill="#0acf83"/>
    <path id="Caminho_108" data-name="Caminho 108" d="M1.2,9.461A6.817,6.817,0,0,1,8.016,2.647h6.814V16.283H8.016A6.817,6.817,0,0,1,1.2,9.469Z" transform="translate(0 11.278)" fill="#a259ff"/>
    <path id="Caminho_109" data-name="Caminho 109" d="M1.2,7.554A6.817,6.817,0,0,1,8.016.74h6.814V14.376H8.016A6.817,6.817,0,0,1,1.2,7.562Z" transform="translate(0 0)" fill="#f24e1e"/>
    <path id="Caminho_110" data-name="Caminho 110" d="M3.1.74H9.914a6.814,6.814,0,1,1,0,13.629H3.1Z" transform="translate(11.674 0)" fill="#ff7262"/>
    <path id="Caminho_111" data-name="Caminho 111" d="M16.8,9.461a6.85,6.85,0,1,0-.071,0Z" transform="translate(11.674 11.279)" fill="#1abcfe"/>
  </g>
</svg>
